<svg width="547" height="86" viewBox="0 0 547 86" fill="none" xmlns="http://www.w3.org/2000/svg">
<path d="M84.5264 0C87.8401 2.80039e-05 90.5264 2.68631 90.5264 6V80C90.5264 83.3137 87.8401 86 84.5264 86H15.0581C14.4006 86 13.922 85.3763 14.0922 84.7412L25.4004 42.5354C25.5996 41.7918 26.5291 41.5427 27.0734 42.0871L42.0165 57.0301C42.407 57.4207 43.0402 57.4207 43.4307 57.0301L48.7334 51.7266L58.372 42.088C58.9163 41.5437 59.8457 41.7927 60.045 42.5363L68.3837 73.6552C68.5267 74.1886 69.075 74.5052 69.6085 74.3622L76.8525 72.4209L84.0974 70.4804C84.6309 70.3375 84.9476 69.7892 84.8046 69.2557L72.207 22.2422L68.8448 9.6945C68.6455 8.95093 67.7161 8.70189 67.1718 9.24622L43.4298 32.9882C43.0393 33.3787 42.4061 33.3787 42.0155 32.9882L27.46 18.4316L18.2745 9.24622C17.7302 8.70189 16.8008 8.95093 16.6015 9.6945L13.2393 22.2422L1.96593 64.3153C1.66329 65.4448 0 65.2258 0 64.0565V6C0 2.68629 2.68629 0 6 0H84.5264Z" fill="#28282B"/>
<path d="M123.114 20.4545H131.636L146.455 56.6364H147L161.818 20.4545H170.341V67H163.659V33.3182H163.227L149.5 66.9318H143.955L130.227 33.2955H129.795V67H123.114V20.4545ZM195.051 67.7045C191.612 67.7045 188.65 66.9697 186.165 65.5C183.695 64.0152 181.786 61.9318 180.438 59.25C179.104 56.553 178.438 53.3939 178.438 49.7727C178.438 46.197 179.104 43.0455 180.438 40.3182C181.786 37.5909 183.665 35.4621 186.074 33.9318C188.498 32.4015 191.331 31.6364 194.574 31.6364C196.544 31.6364 198.453 31.9621 200.301 32.6136C202.15 33.2652 203.809 34.2879 205.278 35.6818C206.748 37.0758 207.907 38.8864 208.756 41.1136C209.604 43.3258 210.028 46.0152 210.028 49.1818V51.5909H182.278V46.5H203.369C203.369 44.7121 203.006 43.1288 202.278 41.75C201.551 40.3561 200.528 39.2576 199.21 38.4545C197.907 37.6515 196.377 37.25 194.619 37.25C192.71 37.25 191.044 37.7197 189.619 38.6591C188.21 39.5833 187.119 40.7955 186.347 42.2955C185.589 43.7803 185.21 45.3939 185.21 47.1364V51.1136C185.21 53.447 185.619 55.4318 186.438 57.0682C187.271 58.7045 188.43 59.9545 189.915 60.8182C191.4 61.6667 193.134 62.0909 195.119 62.0909C196.407 62.0909 197.581 61.9091 198.642 61.5455C199.703 61.1667 200.619 60.6061 201.392 59.8636C202.165 59.1212 202.756 58.2045 203.165 57.1136L209.597 58.2727C209.081 60.1667 208.157 61.8258 206.824 63.25C205.506 64.6591 203.847 65.7576 201.847 66.5455C199.862 67.3182 197.597 67.7045 195.051 67.7045ZM224.364 46.2727V67H217.568V32.0909H224.091V37.7727H224.523C225.326 35.9242 226.583 34.4394 228.295 33.3182C230.023 32.197 232.197 31.6364 234.818 31.6364C237.197 31.6364 239.28 32.1364 241.068 33.1364C242.856 34.1212 244.242 35.5909 245.227 37.5455C246.212 39.5 246.705 41.9167 246.705 44.7955V67H239.909V45.6136C239.909 43.0833 239.25 41.1061 237.932 39.6818C236.614 38.2424 234.803 37.5227 232.5 37.5227C230.924 37.5227 229.523 37.8636 228.295 38.5455C227.083 39.2273 226.121 40.2273 225.409 41.5455C224.712 42.8485 224.364 44.4242 224.364 46.2727ZM272.114 32.0909V37.5455H253.045V32.0909H272.114ZM258.159 23.7273H264.955V56.75C264.955 58.0682 265.152 59.0606 265.545 59.7273C265.939 60.3788 266.447 60.8258 267.068 61.0682C267.705 61.2955 268.394 61.4091 269.136 61.4091C269.682 61.4091 270.159 61.3712 270.568 61.2955C270.977 61.2197 271.295 61.1591 271.523 61.1136L272.75 66.7273C272.356 66.8788 271.795 67.0303 271.068 67.1818C270.341 67.3485 269.432 67.4394 268.341 67.4545C266.553 67.4848 264.886 67.1667 263.341 66.5C261.795 65.8333 260.545 64.803 259.591 63.4091C258.636 62.0152 258.159 60.2652 258.159 58.1591V23.7273ZM293.96 67.7045C290.688 67.7045 287.831 66.9545 285.392 65.4545C282.953 63.9545 281.059 61.8561 279.71 59.1591C278.362 56.4621 277.688 53.3106 277.688 49.7045C277.688 46.0833 278.362 42.9167 279.71 40.2045C281.059 37.4924 282.953 35.3864 285.392 33.8864C287.831 32.3864 290.688 31.6364 293.96 31.6364C297.233 31.6364 300.089 32.3864 302.528 33.8864C304.968 35.3864 306.862 37.4924 308.21 40.2045C309.559 42.9167 310.233 46.0833 310.233 49.7045C310.233 53.3106 309.559 56.4621 308.21 59.1591C306.862 61.8561 304.968 63.9545 302.528 65.4545C300.089 66.9545 297.233 67.7045 293.96 67.7045ZM293.983 62C296.104 62 297.862 61.4394 299.256 60.3182C300.65 59.197 301.68 57.7045 302.347 55.8409C303.028 53.9773 303.369 51.9242 303.369 49.6818C303.369 47.4545 303.028 45.4091 302.347 43.5455C301.68 41.6667 300.65 40.1591 299.256 39.0227C297.862 37.8864 296.104 37.3182 293.983 37.3182C291.847 37.3182 290.074 37.8864 288.665 39.0227C287.271 40.1591 286.233 41.6667 285.551 43.5455C284.884 45.4091 284.551 47.4545 284.551 49.6818C284.551 51.9242 284.884 53.9773 285.551 55.8409C286.233 57.7045 287.271 59.197 288.665 60.3182C290.074 61.4394 291.847 62 293.983 62ZM317.818 67V32.0909H324.386V37.6364H324.75C325.386 35.7576 326.508 34.2803 328.114 33.2045C329.735 32.1136 331.568 31.5682 333.614 31.5682C334.038 31.5682 334.538 31.5833 335.114 31.6136C335.705 31.6439 336.167 31.6818 336.5 31.7273V38.2273C336.227 38.1515 335.742 38.0682 335.045 37.9773C334.348 37.8712 333.652 37.8182 332.955 37.8182C331.348 37.8182 329.917 38.1591 328.659 38.8409C327.417 39.5076 326.432 40.4394 325.705 41.6364C324.977 42.8182 324.614 44.1667 324.614 45.6818V67H317.818ZM342.926 20.4545H351.449L366.267 56.6364H366.812L381.631 20.4545H390.153V67H383.472V33.3182H383.04L369.312 66.9318H363.767L350.04 33.2955H349.608V67H342.926V20.4545ZM421.932 52.5227V32.0909H428.75V67H422.068V60.9545H421.705C420.902 62.8182 419.614 64.3712 417.841 65.6136C416.083 66.8409 413.894 67.4545 411.273 67.4545C409.03 67.4545 407.045 66.9621 405.318 65.9773C403.606 64.9773 402.258 63.5 401.273 61.5455C400.303 59.5909 399.818 57.1742 399.818 54.2955V32.0909H406.614V53.4773C406.614 55.8561 407.273 57.75 408.591 59.1591C409.909 60.5682 411.621 61.2727 413.727 61.2727C415 61.2727 416.265 60.9545 417.523 60.3182C418.795 59.6818 419.848 58.7197 420.682 57.4318C421.53 56.1439 421.947 54.5076 421.932 52.5227ZM444.676 46.2727V67H437.881V32.0909H444.403V37.7727H444.835C445.638 35.9242 446.896 34.4394 448.608 33.3182C450.335 32.197 452.509 31.6364 455.131 31.6364C457.509 31.6364 459.593 32.1364 461.381 33.1364C463.169 34.1212 464.555 35.5909 465.54 37.5455C466.525 39.5 467.017 41.9167 467.017 44.7955V67H460.222V45.6136C460.222 43.0833 459.563 41.1061 458.244 39.6818C456.926 38.2424 455.116 37.5227 452.812 37.5227C451.237 37.5227 449.835 37.8636 448.608 38.5455C447.396 39.2273 446.434 40.2273 445.722 41.5455C445.025 42.8485 444.676 44.4242 444.676 46.2727ZM490.835 67.7045C487.456 67.7045 484.547 66.9394 482.108 65.4091C479.684 63.8636 477.82 61.7348 476.517 59.0227C475.214 56.3106 474.562 53.2045 474.562 49.7045C474.562 46.1591 475.229 43.0303 476.562 40.3182C477.896 37.5909 479.775 35.4621 482.199 33.9318C484.623 32.4015 487.479 31.6364 490.767 31.6364C493.419 31.6364 495.782 32.1288 497.858 33.1136C499.934 34.0833 501.608 35.447 502.881 37.2045C504.169 38.9621 504.934 41.0152 505.176 43.3636H498.562C498.199 41.7273 497.366 40.3182 496.062 39.1364C494.775 37.9545 493.047 37.3636 490.881 37.3636C488.987 37.3636 487.328 37.8636 485.903 38.8636C484.494 39.8485 483.396 41.2576 482.608 43.0909C481.82 44.9091 481.426 47.0606 481.426 49.5455C481.426 52.0909 481.813 54.2879 482.585 56.1364C483.358 57.9848 484.449 59.4167 485.858 60.4318C487.282 61.447 488.956 61.9545 490.881 61.9545C492.169 61.9545 493.335 61.7197 494.381 61.25C495.441 60.7652 496.328 60.0758 497.04 59.1818C497.767 58.2879 498.275 57.2121 498.562 55.9545H505.176C504.934 58.2121 504.199 60.2273 502.972 62C501.744 63.7727 500.1 65.1667 498.04 66.1818C495.994 67.197 493.593 67.7045 490.835 67.7045ZM519.239 46.2727V67H512.443V20.4545H519.148V37.7727H519.58C520.398 35.8939 521.648 34.4015 523.33 33.2955C525.011 32.1894 527.208 31.6364 529.92 31.6364C532.314 31.6364 534.405 32.1288 536.193 33.1136C537.996 34.0985 539.39 35.5682 540.375 37.5227C541.375 39.4621 541.875 41.8864 541.875 44.7955V67H535.08V45.6136C535.08 43.053 534.42 41.0682 533.102 39.6591C531.784 38.2348 529.951 37.5227 527.602 37.5227C525.996 37.5227 524.557 37.8636 523.284 38.5455C522.027 39.2273 521.034 40.2273 520.307 41.5455C519.595 42.8485 519.239 44.4242 519.239 46.2727Z" fill="black"/>
</svg>
